<svg id="Livello_1" data-name="Livello 1" xmlns="http://www.w3.org/2000/svg" xmlns:xlink="http://www.w3.org/1999/xlink" viewBox="0 0 51.01 51.01"><defs><style>.cls-1{fill:#44bfee;}.cls-2{fill:url(#Sfumatura_senza_nome_3);}.cls-3{fill:#e72264;}.cls-4{opacity:0.8;fill:url(#linear-gradient);}</style><linearGradient id="Sfumatura_senza_nome_3" x1="396.4" y1="297.38" x2="444.98" y2="297.38" gradientUnits="userSpaceOnUse"><stop offset="0" stop-color="#f1f3f5"/><stop offset="0.05" stop-color="#f3f5f7"/><stop offset="0.39" stop-color="#fcfdfd"/><stop offset="0.88" stop-color="#fff"/><stop offset="0.92" stop-color="#f7f8f9"/><stop offset="0.97" stop-color="#e2e5e7"/><stop offset="1" stop-color="#d4d8db"/></linearGradient><linearGradient id="linear-gradient" x1="434.46" y1="278.34" x2="431.09" y2="282.23" gradientTransform="matrix(0.64, 0.63, -0.77, 0.52, 374.85, -136.71)" gradientUnits="userSpaceOnUse"><stop offset="0" stop-color="#fff"/><stop offset="0.18" stop-color="#fff" stop-opacity="0.76"/><stop offset="0.44" stop-color="#fff" stop-opacity="0.44"/><stop offset="0.66" stop-color="#fff" stop-opacity="0.2"/><stop offset="0.81" stop-color="#fff" stop-opacity="0.06"/><stop offset="0.9" stop-color="#fff" stop-opacity="0"/></linearGradient></defs><title>icona_on-board</title><path id="back" class="cls-1" d="M446.19,311.44a11.44,11.44,0,0,1-11.36,11.44H406.54a11.43,11.43,0,0,1-11.36-11.44V283.31a11.43,11.43,0,0,1,11.36-11.44h28.29a11.44,11.44,0,0,1,11.36,11.44Z" transform="translate(-395.18 -271.87)"/><path id="back-2" data-name="back" class="cls-2" d="M445,310.77a10.89,10.89,0,0,1-10.82,10.9H407.22a10.89,10.89,0,0,1-10.82-10.9V284a10.89,10.89,0,0,1,10.82-10.9h26.94A10.89,10.89,0,0,1,445,284Z" transform="translate(-395.18 -271.87)"/><circle class="cls-3" cx="38.97" cy="12.51" r="4.77"/><path class="cls-1" d="M434.16,314.8a4.8,4.8,0,1,1,3.4-1.41A4.78,4.78,0,0,1,434.16,314.8Z" transform="translate(-395.18 -271.87)"/><path class="cls-1" d="M408.06,289.18a4.8,4.8,0,1,1,3.4-1.41A4.78,4.78,0,0,1,408.06,289.18Z" transform="translate(-395.18 -271.87)"/><path class="cls-1" d="M408.18,314.8a4.8,4.8,0,0,1-3.4-8.2,4.39,4.39,0,0,1,.68-.55l.24-.15c.18-.1.36-.2.52-.27l.28-.12a5,5,0,0,1,.59-.17l.12,0,.07,0,1.07-.07.44,0h.56a7.09,7.09,0,0,0,7-7.18V298a1.26,1.26,0,0,1,0-.15c0-.06,0-.12,0-.18v-.11c0-.09,0-.18,0-.27l.08-1.07,0-.08,0-.07a4.75,4.75,0,0,1,.18-.6,2.56,2.56,0,0,1,.12-.28,5.36,5.36,0,0,1,.28-.53l.14-.23a4.72,4.72,0,0,1,.55-.68,4.8,4.8,0,1,1,6.79,6.8,4.59,4.59,0,0,1-.68.55l-.23.14a5.46,5.46,0,0,1-.52.27l-.28.12a4.52,4.52,0,0,1-.58.17l-.12,0-.08,0-1.08.08-.4,0h-.6a7.09,7.09,0,0,0-7,7.18v.11a1.51,1.51,0,0,1,0,.16c0,.06,0,.12,0,.18s0,.1,0,.17a2,2,0,0,1,0,.22v0l-.08,1,0,.18a5,5,0,0,1-.18.59,2.92,2.92,0,0,1-.11.27c-.08.18-.17.36-.28.54l-.15.24a4.71,4.71,0,0,1-3.94,2.07Z" transform="translate(-395.18 -271.87)"/><path class="cls-1" d="M421.16,314.8a4.8,4.8,0,0,1-3.4-8.2,4.71,4.71,0,0,1,.68-.56l.23-.14a5.36,5.36,0,0,1,.52-.28l.28-.12a4.48,4.48,0,0,1,.58-.17l.19-.05,1.09-.08.41,0h.6a7.09,7.09,0,0,0,7-7.18v-.22l0,0v0c0-.05,0-.1,0-.16l0-.15c0-.08,0-.17,0-.25l.07-1,.05-.19a5.08,5.08,0,0,1,.18-.59c0-.1.08-.19.12-.28a5.78,5.78,0,0,1,.28-.53l0,0,.12-.19a4.79,4.79,0,0,1,7.35-.69,4.82,4.82,0,0,1,0,6.8,4.87,4.87,0,0,1-.68.55l-.16.1-.08.05a5.54,5.54,0,0,1-.51.27l-.28.12a4.82,4.82,0,0,1-.59.17l-.12,0-.08,0-1.07.07-.49-.05h-.52a7.08,7.08,0,0,0-7,7.18v.11a1.39,1.39,0,0,1,0,.16c0,.06,0,.11,0,.17l0,.16c0,.08,0,.16,0,.24l-.08,1.05,0,.17a4.91,4.91,0,0,1-.18.6c0,.09-.07.17-.11.26v0a5.35,5.35,0,0,1-.27.51l-.15.24a4.89,4.89,0,0,1-.56.68,4.76,4.76,0,0,1-3.39,1.4Z" transform="translate(-395.18 -271.87)"/><path class="cls-1" d="M408.18,301.83a4.78,4.78,0,0,1-2.72-8.75l.24-.15a5.63,5.63,0,0,1,.52-.27l.28-.12a4.58,4.58,0,0,1,.57-.17l.12,0,.07,0,1.09-.08.45,0h.55a7.09,7.09,0,0,0,7-7.18V285a1.4,1.4,0,0,1,0-.18s0-.1,0-.15l0-.15a2.63,2.63,0,0,1,0-.27l.07-1v0l0-.16a5.11,5.11,0,0,1,.18-.61c0-.09.08-.18.12-.28a5.36,5.36,0,0,1,.28-.53l0,0,.13-.21a4.71,4.71,0,0,1,.55-.67,4.81,4.81,0,1,1,6.8,6.79,4.54,4.54,0,0,1-.68.55l-.2.13,0,0a5.5,5.5,0,0,1-.51.27l-.28.12a4.7,4.7,0,0,1-.59.17l-.13,0-.08,0-1.07.07-.43,0h-.58a7.09,7.09,0,0,0-7,7.18v.11a1.19,1.19,0,0,1,0,.16c0,.06,0,.11,0,.17l0,.16c0,.08,0,.16,0,.24l-.08,1,0,.08,0,.09a4.81,4.81,0,0,1-.17.6c0,.09-.08.18-.12.28a5.23,5.23,0,0,1-.27.52l-.15.24a4.63,4.63,0,0,1-.55.68,4.77,4.77,0,0,1-3.39,1.41Z" transform="translate(-395.18 -271.87)"/><ellipse class="cls-4" cx="435.53" cy="282.91" rx="2.04" ry="2.46" transform="translate(-455.53 165.39) rotate(-50.3)"/></svg>